<svg xmlns="http://www.w3.org/2000/svg" viewBox="0 0 144 124.7">
  <linearGradient id="tr-grad" x1="66.03" x2="76.86" y1="3.081" y2="121.4" gradientUnits="userSpaceOnUse">
    <stop stop-color="#F7A55B" offset="0"/>
    <stop stop-color="#EE695C" offset="1"/>
  </linearGradient>
  <path fill="url(#tr-grad)" d="m81.7 2.7c-21.6 1.2-26.6 12.8-36.6 18.3-11.8 6.5-16.4 4.5-25.1 8.4-8.2 3.6-17.2 14.6-16.7 30.5 0.6 18.1 10.5 21 16.7 27.6 7.8 8.1 8.5 14.6 14.2 22.5 8.8 10.8 23.7 13.2 35.5 11.1 12-2.1 16.9-6.4 23.8-10.2 12.1-6.8 17.7-5.6 25.7-8 15.2-4.6 22.4-18.8 22.3-34.3-0.5-19.1-12.1-22.1-17.7-30.1-6.8-8.9-6.5-15.5-12.2-22.2-5.8-7.1-14.8-13.6-29.9-13.6z"/>
</svg>
